<svg width="198" height="198" viewBox="0 0 198 198" fill="none" xmlns="http://www.w3.org/2000/svg">
  <path d="M98.9798 0.241211H98.53C44.1134 0.241211 0 44.3676 0 98.8002V99.2501C0 153.683 44.1134 197.809 98.53 197.809H98.9798C153.396 197.809 197.51 153.683 197.51 99.2501V98.8002C197.51 44.3676 153.396 0.241211 98.9798 0.241211Z" fill="#FF0000" />
  <path fill-rule="evenodd" clip-rule="evenodd" d="M128.862 45C146.483 45 159.771 59.3775 159.771 78.4433V114.786C159.771 124.544 156.321 133.36 150.05 139.615C144.425 145.219 137.128 148.188 128.947 148.188H76.8081C68.643 148.188 61.3511 145.224 55.7208 139.615C49.4502 133.36 46 124.544 46 114.786V78.4433C46 59.3775 59.2874 45 76.9086 45H128.862ZM128.862 52.9375H76.9086C63.6001 52.9375 53.9375 63.6637 53.9375 78.4433V114.786C53.9375 122.422 56.5622 129.243 61.3247 133.99C65.431 138.091 70.7915 140.25 76.824 140.25H128.862C128.873 140.239 128.915 140.25 128.947 140.25C134.985 140.25 140.34 138.091 144.446 133.99C149.214 129.243 151.833 122.422 151.833 114.786V78.4433C151.833 63.6637 142.171 52.9375 128.862 52.9375ZM137.202 77.4316C138.583 79.1302 138.324 81.6279 136.625 83.0143L113.109 102.128C110.135 104.488 106.579 105.668 103.028 105.668C99.4882 105.668 95.9586 104.498 93.0059 102.16L69.2728 83.0249C67.5635 81.649 67.299 79.1461 68.6695 77.4421C70.0506 75.7435 72.5483 75.4736 74.2522 76.8442L97.9642 95.9577C100.943 98.3178 105.14 98.3178 108.14 95.9365L131.614 76.8548C133.318 75.4631 135.815 75.7276 137.202 77.4316Z" fill="white" />
</svg>