<svg width="198" height="198" viewBox="0 0 198 198" fill="none" xmlns="http://www.w3.org/2000/svg">
  <path d="M98.9797 0H98.53C44.1134 0 0 44.1264 0 98.559V99.0089C0 153.441 44.1134 197.568 98.53 197.568H98.9797C153.396 197.568 197.51 153.441 197.51 99.0089V98.559C197.51 44.1264 153.396 0 98.9797 0Z" fill="url(#paint0_linear_95_1482)" />
  <path d="M129.316 40.1943H68.2008C51.3167 40.1943 37.5811 53.934 37.5811 70.8231V126.751C37.5811 143.64 51.3167 157.38 68.2008 157.38H129.316C146.2 157.38 159.936 143.64 159.936 126.751V70.8231C159.936 53.934 146.2 40.1943 129.316 40.1943ZM48.3828 70.8231C48.3828 59.8937 57.2746 50.9992 68.2008 50.9992H129.316C140.242 50.9992 149.134 59.8937 149.134 70.8231V126.751C149.134 137.68 140.242 146.575 129.316 146.575H68.2008C57.2746 146.575 48.3828 137.68 48.3828 126.751V70.8231Z" fill="white" />
  <path d="M98.759 127.27C114.46 127.27 127.241 114.492 127.241 98.78C127.241 83.0676 114.467 70.29 98.759 70.29C83.0512 70.29 70.2773 83.0676 70.2773 98.78C70.2773 114.492 83.0512 127.27 98.759 127.27ZM98.759 81.1018C108.509 81.1018 116.439 89.0342 116.439 98.7869C116.439 108.54 108.509 116.472 98.759 116.472C89.0091 116.472 81.079 108.54 81.079 98.7869C81.079 89.0342 89.0091 81.1018 98.759 81.1018Z" fill="white" />
  <path d="M129.876 74.8935C134.104 74.8935 137.55 71.4534 137.55 67.2173C137.55 62.9811 134.111 59.541 129.876 59.541C125.641 59.541 122.202 62.9811 122.202 67.2173C122.202 71.4534 125.641 74.8935 129.876 74.8935Z" fill="white" />
  <defs>
    <linearGradient id="paint0_linear_95_1482" x1="28.8552" y1="168.704" x2="168.696" y2="28.9118" gradientUnits="userSpaceOnUse">
      <stop stop-color="#FAAD4F" />
      <stop offset="0.35" stop-color="#DD2A7B" />
      <stop offset="0.62" stop-color="#9537B0" />
      <stop offset="1" stop-color="#515BD4" />
    </linearGradient>
  </defs>
</svg>