<svg width="199" height="198" viewBox="0 0 199 198" fill="none" xmlns="http://www.w3.org/2000/svg">
  <path d="M99.6634 0.241211H99.2135C44.797 0.241211 0.683594 44.3676 0.683594 98.8002V99.2501C0.683594 153.683 44.797 197.809 99.2135 197.809H99.6634C154.08 197.809 198.193 153.683 198.193 99.2501V98.8002C198.193 44.3676 154.08 0.241211 99.6634 0.241211Z" fill="#FF0000" />
  <path fill-rule="evenodd" clip-rule="evenodd" d="M90.4253 126.037C90.3076 126.445 90.197 126.792 90.107 127.138C84.8826 147.612 84.3013 152.16 78.9316 161.67C76.3713 166.19 73.4858 170.475 70.2958 174.572C69.936 175.036 69.5969 175.632 68.8773 175.486C68.0884 175.32 68.0261 174.607 67.9431 173.977C67.0851 167.755 66.6076 161.518 66.8152 155.233C67.0851 147.052 68.0954 144.241 78.641 99.8867C78.7932 99.2084 78.6202 98.6477 78.3988 98.0386C75.8731 91.2276 75.3749 84.3127 77.5823 77.3079C82.3569 62.1769 99.504 61.021 102.5 73.5009C104.348 81.2187 99.4624 91.3245 95.712 106.262C92.605 118.582 107.109 127.345 119.502 118.347C130.933 110.055 135.369 90.1755 134.525 76.0828C132.864 47.9873 102.064 41.9169 82.5299 50.9637C60.1308 61.3256 55.0378 89.0957 65.1545 101.79C66.4346 103.403 68.8496 104.393 68.4275 106.026C67.777 108.567 67.2027 111.128 66.4969 113.654C65.971 115.537 62.9748 116.222 61.0718 115.447C57.3421 113.938 54.2351 111.564 51.7163 108.435C43.129 97.7963 40.6725 76.7542 52.0277 58.9376C64.6078 39.2036 88.0103 31.2159 109.378 33.6385C134.898 36.5387 151.028 53.9816 154.045 73.7709C155.422 82.783 154.433 105.009 141.783 120.721C127.231 138.773 103.642 139.971 92.7572 128.889C91.9199 128.037 91.2487 127.048 90.4253 126.03V126.037Z" fill="white" />
</svg>